<svg id="Layer_1" data-name="Layer 1" xmlns="http://www.w3.org/2000/svg" viewBox="0 0 228.45 229.31"><title>cog-2</title><path d="M198.31,120.3q0.22-3,.22-6.08,0-4.19-.41-8.26l24.39-23.87a112,112,0,0,0-10.44-24.28L178,59.06A85.46,85.46,0,0,0,167.7,49l0.37-34.11a111.56,111.56,0,0,0-24.55-9.79l-23.22,25q-3-.22-6.08-0.22-4.18,0-8.26.41L82.09,5.93A112,112,0,0,0,57.81,16.37l1.25,34.08A85.46,85.46,0,0,0,49,60.74l-34.11-.37A111.56,111.56,0,0,0,5.14,84.92l25,23.22q-0.22,3-.22,6.08,0,4.18.41,8.26L5.93,146.35a112,112,0,0,0,10.44,24.28l34.08-1.25a85.46,85.46,0,0,0,10.29,10l-0.37,34.11a111.56,111.56,0,0,0,24.55,9.79l23.22-25q3,0.23,6.08.22,4.18,0,8.26-.41l23.87,24.39a112,112,0,0,0,24.28-10.44L169.38,178a85.45,85.45,0,0,0,10-10.29l34.11,0.37a111.56,111.56,0,0,0,9.79-24.55Zm-84.09,49.2a55.28,55.28,0,1,1,55.28-55.28A55.28,55.28,0,0,1,114.22,169.5Z"/></svg>