<svg id="Layer_6" data-name="Layer 6" xmlns="http://www.w3.org/2000/svg" viewBox="0 0 44.66 44.67"><title>behance</title><path d="M2887.53,4462H2884v-4h3.13a5.44,5.44,0,0,1,1.85.5,1.93,1.93,0,0,1,.2,3A3.1,3.1,0,0,1,2887.53,4462Z" transform="translate(-2870.85 -4441.16)"/><path d="M2890.14,4466.51a2.2,2.2,0,0,1-1,2.09,3.56,3.56,0,0,1-1.58.41H2884v-4h3.58a4.5,4.5,0,0,1,1.56,0A1.41,1.41,0,0,1,2890.14,4466.51Z" transform="translate(-2870.85 -4441.16)"/><path d="M2901.92,4462.33a2.54,2.54,0,0,0-1.74-.52,2.33,2.33,0,0,0-1.74.57,2.08,2.08,0,0,0-.78,1.62h5A1.93,1.93,0,0,0,2901.92,4462.33Zm0,0a2.54,2.54,0,0,0-1.74-.52,2.33,2.33,0,0,0-1.74.57,2.08,2.08,0,0,0-.78,1.62h5A1.93,1.93,0,0,0,2901.92,4462.33Zm-8.74-18.36a19.53,19.53,0,1,0,19.52,19.52A19.54,19.54,0,0,0,2893.18,4444Zm3.82,12h6v2h-6v-2Zm-4.26,13.22a4.37,4.37,0,0,1-1.11,1.23,4.11,4.11,0,0,1-1.76.56,10.89,10.89,0,0,1-2.21,0H2881v-15h7.17c1.9,0,3.25.49,4.05,1.57a3.9,3.9,0,0,1,.71,2.34,3.43,3.43,0,0,1-.72,2.28,3.87,3.87,0,0,1-1.19.87,3.53,3.53,0,0,1,1.8,1.38,4.07,4.07,0,0,1,.61,2.28A4.57,4.57,0,0,1,2892.74,4469.22Zm6-.72a3,3,0,0,0,1.61.54,2.45,2.45,0,0,0,1.62-.44,2.57,2.57,0,0,1,.6-0.6h3a10.18,10.18,0,0,1-1.08,1.86,5.35,5.35,0,0,1-4.21,1.46,6.15,6.15,0,0,1-3.95-1.36q-1.7-1.38-1.7-4.49a6,6,0,0,1,1.54-4.46,5.38,5.38,0,0,1,4-1.56,6.41,6.41,0,0,1,2.64.51,4.5,4.5,0,0,1,1.93,1.65,5.24,5.24,0,0,1,.89,2.24,13.22,13.22,0,0,1,.1,2.14h-8.15A3.08,3.08,0,0,0,2898.76,4468.5Zm3.16-6.17a2.54,2.54,0,0,0-1.74-.52,2.33,2.33,0,0,0-1.74.57,2.08,2.08,0,0,0-.78,1.62h5A1.93,1.93,0,0,0,2901.92,4462.33Z" transform="translate(-2870.85 -4441.16)"/><path d="M2893.18,4441.16a22.34,22.34,0,1,0,22.33,22.33A22.33,22.33,0,0,0,2893.18,4441.16Zm0,42.83a20.5,20.5,0,1,1,20.5-20.5A20.52,20.52,0,0,1,2893.18,4484Z" transform="translate(-2870.85 -4441.16)"/></svg>