<svg id="Layer_1" data-name="Layer 1" xmlns="http://www.w3.org/2000/svg" viewBox="0 0 1847.87 535.79"><title>cogs</title><path d="M393.79,359.9L424,350.12a210.88,210.88,0,0,0-3.61-36.59l-30.88-2.22a179.13,179.13,0,0,0-13-37.29l21.75-22.25a210.56,210.56,0,0,0-19.94-29.94l-28,12.2a181.19,181.19,0,0,0-30.44-28l8.77-29.3a208.33,208.33,0,0,0-31.16-16.79l-18.92,23.59A178.59,178.59,0,0,0,237.38,173l-5.79-29.7q-8.7-.72-17.6-0.73t-17.6.73L190.6,173a178.59,178.59,0,0,0-41.21,10.43l-18.92-23.59a208.33,208.33,0,0,0-31.16,16.79L108.07,206a180.74,180.74,0,0,0-30.43,28l-28-12.2a209.61,209.61,0,0,0-19.94,29.93L51.5,274a179.13,179.13,0,0,0-13,37.29L7.63,313.53A210.88,210.88,0,0,0,4,350.12l30.17,9.78a180.08,180.08,0,0,0,5.51,36.75L12.9,413.27a208,208,0,0,0,14,34.86l31.81-5.45A180.58,180.58,0,0,0,79.34,471L63.06,498.6a210.1,210.1,0,0,0,29,25l25.89-19.81A178.44,178.44,0,0,0,147.79,519l-1.59,32.46a208.48,208.48,0,0,0,37.58,9l13.75-29.65q8.13,0.73,16.46.74t16.46-.74l13.75,29.65a208.48,208.48,0,0,0,37.58-9L280.19,519A178.44,178.44,0,0,0,310,503.78l25.89,19.81a210.1,210.1,0,0,0,29-25L348.64,471a180.58,180.58,0,0,0,20.59-28.29L401,448.13a208,208,0,0,0,14-34.86l-26.8-16.62A180.08,180.08,0,0,0,393.79,359.9ZM214.24,489.52a138,138,0,1,1,138-138A138,138,0,0,1,214.24,489.52Z" transform="translate(-4.02 -117.12)"/><path d="M1821.72,334.4l30.17-9.78a210.88,210.88,0,0,0-3.61-36.59l-30.88-2.22a179.13,179.13,0,0,0-13-37.29l21.75-22.25a210.56,210.56,0,0,0-19.94-29.94l-28,12.2a181.19,181.19,0,0,0-30.44-28l8.77-29.3a208.33,208.33,0,0,0-31.16-16.79L1706.52,158a178.59,178.59,0,0,0-41.21-10.43l-5.79-29.7q-8.7-.72-17.6-0.73t-17.6.73l-5.79,29.7A178.59,178.59,0,0,0,1577.32,158l-18.92-23.59a208.33,208.33,0,0,0-31.16,16.79l8.76,29.31a180.74,180.74,0,0,0-30.43,28l-28-12.2a209.61,209.61,0,0,0-19.94,29.93l21.75,22.25a179.13,179.13,0,0,0-13,37.29L1435.56,288a210.88,210.88,0,0,0-3.61,36.59l30.17,9.78a180.08,180.08,0,0,0,5.51,36.75l-26.8,16.62a208,208,0,0,0,14,34.86l31.81-5.45a180.58,180.58,0,0,0,20.59,28.29L1491,473.1a210.1,210.1,0,0,0,29,25l25.89-19.81a178.44,178.44,0,0,0,29.84,15.18l-1.59,32.46a208.48,208.48,0,0,0,37.58,9l13.75-29.65q8.13,0.73,16.46.74t16.46-.74l13.75,29.65a208.48,208.48,0,0,0,37.58-9l-1.59-32.46A178.44,178.44,0,0,0,1738,478.28l25.89,19.81a210.1,210.1,0,0,0,29-25l-16.28-27.63a180.58,180.58,0,0,0,20.59-28.29l31.81,5.45a208,208,0,0,0,14-34.86l-26.8-16.62A180.08,180.08,0,0,0,1821.72,334.4ZM1642.17,464a138,138,0,1,1,138-138A138,138,0,0,1,1642.17,464Z" transform="translate(-4.02 -117.12)"/><path d="M1475.09,519.7l20-6.5a140.08,140.08,0,0,0-2.4-24.31l-20.51-1.47a119,119,0,0,0-8.63-24.77L1478,447.88A139.87,139.87,0,0,0,1464.79,428l-18.57,8.1A120.36,120.36,0,0,0,1426,417.46l5.83-19.46a138.38,138.38,0,0,0-20.7-11.15l-12.57,15.67a118.63,118.63,0,0,0-27.37-6.93l-3.85-19.73q-5.78-.48-11.69-0.48t-11.69.48l-3.85,19.73a118.63,118.63,0,0,0-27.37,6.93l-12.57-15.67a138.38,138.38,0,0,0-20.7,11.15l5.82,19.47a120.06,120.06,0,0,0-20.21,18.63l-18.57-8.1a139.23,139.23,0,0,0-13.25,19.88l14.45,14.78a119,119,0,0,0-8.63,24.77l-20.51,1.47a140.08,140.08,0,0,0-2.4,24.31l20,6.5a119.62,119.62,0,0,0,3.66,24.41l-17.8,11a138.17,138.17,0,0,0,9.33,23.16l21.13-3.62a120,120,0,0,0,13.68,18.79l-10.81,18.35a139.56,139.56,0,0,0,19.26,16.6l17.2-13.16a118.53,118.53,0,0,0,19.82,10.08l-1.06,21.56a138.48,138.48,0,0,0,25,6l9.13-19.7q5.4,0.49,10.93.49t10.93-.49l9.13,19.7a138.48,138.48,0,0,0,25-6l-1.06-21.56a118.53,118.53,0,0,0,19.82-10.08l17.2,13.16a139.56,139.56,0,0,0,19.26-16.6l-10.81-18.35a120,120,0,0,0,13.68-18.79l21.13,3.62a138.18,138.18,0,0,0,9.33-23.16l-17.8-11A119.62,119.62,0,0,0,1475.09,519.7Zm-119.27,86.1a91.66,91.66,0,1,1,91.66-91.66A91.66,91.66,0,0,1,1355.82,605.8Z" transform="translate(-4.02 -117.12)"/></svg>