<svg id="Layer_1" data-name="Layer 1" xmlns="http://www.w3.org/2000/svg" viewBox="0 0 336.26 336.26"><title>cog-1</title><path d="M248.19,695.79q0.6-7,.6-14.2t-0.6-14.2L220,661.5a136.73,136.73,0,0,0-2.9-14.69l23.8-16.24A166.51,166.51,0,0,0,230,604.37l-28.31,5.34a139.82,139.82,0,0,0-8.33-12.45l15.77-24.1a170,170,0,0,0-20.08-20.08L165,568.85a139.81,139.81,0,0,0-12.45-8.33l5.34-28.31a166.51,166.51,0,0,0-26.2-10.87l-16.24,23.8a136.74,136.74,0,0,0-14.69-2.9l-5.89-28.18q-7-.6-14.2-0.6t-14.2.6l-5.89,28.18a136.74,136.74,0,0,0-14.69,2.9l-16.24-23.8a166.51,166.51,0,0,0-26.2,10.87l5.34,28.31a139.81,139.81,0,0,0-12.45,8.33l-24.1-15.77a170,170,0,0,0-20.08,20.08l15.77,24.1a139.82,139.82,0,0,0-8.33,12.45l-28.31-5.34a166.51,166.51,0,0,0-10.87,26.2l23.8,16.24a136.73,136.73,0,0,0-2.9,14.69l-28.18,5.89q-0.6,7-.6,14.2t0.6,14.2l28.18,5.89a136.73,136.73,0,0,0,2.9,14.69l-23.8,16.24a166.51,166.51,0,0,0,10.87,26.2l28.31-5.34a139.82,139.82,0,0,0,8.33,12.45L-47.85,790A170,170,0,0,0-27.77,810.1l24.1-15.77a139.82,139.82,0,0,0,12.45,8.33L3.44,831a166.51,166.51,0,0,0,26.2,10.87L45.88,818a136.75,136.75,0,0,0,14.69,2.9l5.89,28.18q7,0.6,14.2.6t14.2-.6l5.89-28.18a136.75,136.75,0,0,0,14.69-2.9l16.24,23.8A166.51,166.51,0,0,0,157.88,831l-5.34-28.31A139.82,139.82,0,0,0,165,794.33l24.1,15.77A170,170,0,0,0,209.17,790l-15.77-24.1a139.82,139.82,0,0,0,8.33-12.45L230,758.81a166.51,166.51,0,0,0,10.87-26.2l-23.8-16.24a136.73,136.73,0,0,0,2.9-14.69ZM80.66,789.59a108,108,0,1,1,108-108A108,108,0,0,1,80.66,789.59Z" transform="translate(87.47 -513.46)"/></svg>