<svg id="Layer_1" data-name="Layer 1" xmlns="http://www.w3.org/2000/svg" viewBox="0 0 294.76 302.6"><title>cog-7</title><path d="M1781.43,1800.67l31.32,19.51a150.55,150.55,0,0,1-7.92,24.43L1768,1842a116.63,116.63,0,0,1-17.5,24l13.87,34.19a151.56,151.56,0,0,1-20.77,15.11l-28.22-23.74a115.65,115.65,0,0,1-28.3,9.19l-8.87,35.79c-4.23.36-8.52,0.54-12.84,0.54s-8.61-.18-12.85-0.54l-8.87-35.79a115.78,115.78,0,0,1-28.3-9.19l-28.22,23.74a151.56,151.56,0,0,1-20.77-15.11l13.87-34.18a116.33,116.33,0,0,1-17.5-24.05l-36.82,2.63a150.79,150.79,0,0,1-7.93-24.42l31.33-19.52a118.08,118.08,0,0,1,0-29.74L1518,1751.41a150.8,150.8,0,0,1,7.93-24.42l36.81,2.63a116.7,116.7,0,0,1,17.5-24l-13.86-34.18a151.56,151.56,0,0,1,20.77-15.11l28.21,23.73a115.71,115.71,0,0,1,28.31-9.19l8.87-35.78q6.36-.54,12.85-0.54c4.32,0,8.61.18,12.84,0.54l8.87,35.78a115.71,115.71,0,0,1,28.31,9.19l28.21-23.73a151.56,151.56,0,0,1,20.77,15.11l-13.86,34.18a117.06,117.06,0,0,1,17.5,24l36.81-2.63a150.56,150.56,0,0,1,7.92,24.43l-31.32,19.51A118.08,118.08,0,0,1,1781.43,1800.67Z" transform="translate(-1517.99 -1634.5)"/></svg>