<svg id="Layer_1" data-name="Layer 1" xmlns="http://www.w3.org/2000/svg" viewBox="0 0 575.99 576"><defs><style>.cls-1{fill:none;}</style></defs><title>cog-4</title><path class="cls-1" d="M67,1509.29l-45.47-3.16A287.51,287.51,0,0,0,30,1545.51l40.14-22Q68.36,1516.47,67,1509.29Z" transform="translate(-18.47 -1176.48)"/><path class="cls-1" d="M515.7,1349l49-12.23a287.06,287.06,0,0,0-21.8-36.81l-34.37,36.54Q512.28,1342.62,515.7,1349Z" transform="translate(-18.47 -1176.48)"/><path class="cls-1" d="M408,1245.88l31.07-37.05a286.93,286.93,0,0,0-38.78-16.67l-6.05,47.6Q401.27,1242.61,408,1245.88Z" transform="translate(-18.47 -1176.48)"/><path class="cls-1" d="M470.07,1289L512,1262.77a289.75,289.75,0,0,0-31.94-28.05l-20.94,44.41Q464.74,1283.89,470.07,1289Z" transform="translate(-18.47 -1176.48)"/><path class="cls-1" d="M540.44,1420l51.09,3.56a287.42,287.42,0,0,0-9.19-41.89l-44.79,24.57Q539.19,1413,540.44,1420Z" transform="translate(-18.47 -1176.48)"/><path class="cls-1" d="M542.18,1494.94l48,19.37a287.42,287.42,0,0,0,4.2-42.68l-50.77,9.64Q543.08,1488.16,542.18,1494.94Z" transform="translate(-18.47 -1176.48)"/><path class="cls-1" d="M520.82,1566.7l39.78,33.36A287.06,287.06,0,0,0,577.91,1561l-51.61-6.56Q523.72,1560.63,520.82,1566.7Z" transform="translate(-18.47 -1176.48)"/><path class="cls-1" d="M259.66,1226l3.21-46.17a287.24,287.24,0,0,0-40.38,9.14l22.11,40.29Q252,1227.38,259.66,1226Z" transform="translate(-18.47 -1176.48)"/><path class="cls-1" d="M85.21,1360.64L50.82,1331.8a287,287,0,0,0-16.1,37.1l44.48,5.66Q82,1367.49,85.21,1360.64Z" transform="translate(-18.47 -1176.48)"/><path class="cls-1" d="M188.07,1251.34l-11-44.18a287.11,287.11,0,0,0-35.23,21l33,31Q181.27,1255,188.07,1251.34Z" transform="translate(-18.47 -1176.48)"/><path class="cls-1" d="M335.51,1224.11l17.7-43.85a287.59,287.59,0,0,0-41.65-3.74l8.74,46.05Q328,1223.11,335.51,1224.11Z" transform="translate(-18.47 -1176.48)"/><path class="cls-1" d="M127.93,1297.83L104,1259.64a289.74,289.74,0,0,0-26.84,30.54l40.57,19.13Q122.68,1303.41,127.93,1297.83Z" transform="translate(-18.47 -1176.48)"/><circle class="cls-1" cx="306.46" cy="1464.49" r="188.31" transform="translate(-104.43 -1155.83) rotate(-3.39)"/><path class="cls-1" d="M274.15,1702.07L255.6,1748a287.23,287.23,0,0,0,41.14,4.31l-9.31-49Q280.74,1702.87,274.15,1702.07Z" transform="translate(-18.47 -1176.48)"/><path class="cls-1" d="M349,1699.48l-3.51,50.37a287.58,287.58,0,0,0,40.89-8.62l-24.47-44.6Q355.52,1698.23,349,1699.48Z" transform="translate(-18.47 -1176.48)"/><path class="cls-1" d="M419.36,1674.11l12.42,49.75a286.92,286.92,0,0,0,36.52-21.11l-37.55-35.32Q425.16,1670.92,419.36,1674.11Z" transform="translate(-18.47 -1176.48)"/><path class="cls-1" d="M64.23,1433.58L22.4,1416.69a287.52,287.52,0,0,0-3.83,40.12l44.32-8.42Q63.33,1440.93,64.23,1433.58Z" transform="translate(-18.47 -1176.48)"/><path class="cls-1" d="M487.33,1618.46q-4.28,5.06-8.84,9.88l27.44,43.88a289.75,289.75,0,0,0,28.39-31.6Z" transform="translate(-18.47 -1176.48)"/><path class="cls-1" d="M202,1681.48l-31.13,37.12a287.1,287.1,0,0,0,37.44,16.7l6.16-48.45Q208.13,1684.34,202,1681.48Z" transform="translate(-18.47 -1176.48)"/><path class="cls-1" d="M139.57,1639.54L99.4,1664.66a289.75,289.75,0,0,0,30.24,27.14L150,1648.67Q144.65,1644.26,139.57,1639.54Z" transform="translate(-18.47 -1176.48)"/><path class="cls-1" d="M92.94,1580.27l-45,11.24a287,287,0,0,0,20.37,34.93l32-34Q96.41,1586.5,92.94,1580.27Z" transform="translate(-18.47 -1176.48)"/><path d="M487.33,1618.46l47,22.16a289,289,0,0,0,26.27-40.56l-39.78-33.36q2.9-6.07,5.48-12.31l51.61,6.56a285.81,285.81,0,0,0,12.27-46.64l-48-19.37q0.9-6.78,1.42-13.67l50.77-9.64c0.19-8,.07-16-0.41-24.15s-1.3-16.08-2.43-24L540.44,1420q-1.24-7-2.89-13.76l44.79-24.57a285.81,285.81,0,0,0-17.67-44.86l-49,12.23q-3.42-6.37-7.21-12.5l34.37-36.54A289,289,0,0,0,512,1262.77L470.07,1289q-5.32-5.1-10.94-9.87l20.94-44.41a288.83,288.83,0,0,0-41-25.88L408,1245.88q-6.77-3.28-13.76-6.12l6.05-47.6a285.76,285.76,0,0,0-47.12-11.9l-17.7,43.85q-7.54-1-15.2-1.54l-8.74-46.05q-11-.18-22.11.47c-9,.53-17.85,1.49-26.58,2.82L259.66,1226q-7.62,1.39-15.06,3.26L222.49,1189a285.79,285.79,0,0,0-45.46,18.2l11,44.18q-6.8,3.71-13.31,7.83l-33-31A288.94,288.94,0,0,0,104,1259.64l23.88,38.19q-5.25,5.58-10.14,11.49l-40.57-19.13a288.85,288.85,0,0,0-26.39,41.62l34.39,28.84q-3.21,6.85-6,13.92l-44.48-5.66a285.78,285.78,0,0,0-12.32,47.79l41.83,16.88q-0.89,7.34-1.34,14.82l-44.32,8.42c-0.21,8.16-.09,16.39.4,24.69s1.35,16.53,2.53,24.62L67,1509.29q1.4,7.18,3.21,14.2l-40.14,22a285.77,285.77,0,0,0,17.88,46l45-11.24q3.47,6.22,7.29,12.2l-32,34a288.86,288.86,0,0,0,31.13,38.22l40.17-25.12q5.07,4.7,10.41,9.12l-20.34,43.14a289,289,0,0,0,41.21,26.8L202,1681.48q6.15,2.86,12.47,5.37l-6.16,48.45A285.78,285.78,0,0,0,255.6,1748l18.55-45.94q6.59,0.8,13.28,1.24l9.31,49c8.83,0.29,17.74.2,26.73-.34q11.14-.66,22-2.14l3.51-50.37q6.53-1.24,12.91-2.84l24.47,44.6a285.74,285.74,0,0,0,45.41-17.37l-12.42-49.75q5.79-3.18,11.39-6.67l37.55,35.32a288.83,288.83,0,0,0,37.63-30.54l-27.44-43.88Q483,1623.53,487.33,1618.46Zm-169.75,34c-103.82,6.14-193-73-199.1-176.86s73-193,176.86-199.11,193,73,199.1,176.86S421.41,1646.33,317.58,1652.47Z" transform="translate(-18.47 -1176.48)"/></svg>