<svg id="Layer_1" data-name="Layer 1" xmlns="http://www.w3.org/2000/svg" viewBox="0 0 534 534"><defs><style>.cls-1{fill:none;}</style></defs><title>cog-6</title><path class="cls-1" d="M2497.53,897.61L2536,880.76a268.55,268.55,0,0,0-46.73-48l-17.87,38A227.73,227.73,0,0,1,2497.53,897.61Z" transform="translate(-2055.83 -774.53)"/><path class="cls-1" d="M2534.86,1120.89l33.84,24.92a265.09,265.09,0,0,0,18.18-64.51l-41.86,3.53A224.64,224.64,0,0,1,2534.86,1120.89Z" transform="translate(-2055.83 -774.53)"/><path class="cls-1" d="M2437.78,846.53l30.4-29a265.87,265.87,0,0,0-60.33-29.18l-3.8,41.86A225.36,225.36,0,0,1,2437.78,846.53Z" transform="translate(-2055.83 -774.53)"/><path class="cls-1" d="M2494.9,1188.57l23.27,35a267.77,267.77,0,0,0,39.22-54.33l-40.56-11A227,227,0,0,1,2494.9,1188.57Z" transform="translate(-2055.83 -774.53)"/><path class="cls-1" d="M2360.12,1264.79l-4.65,41.75a265.27,265.27,0,0,0,65-16.42l-24-34.5A224.77,224.77,0,0,1,2360.12,1264.79Z" transform="translate(-2055.83 -774.53)"/><path class="cls-1" d="M2536.26,966l41.94-2.67a265.61,265.61,0,0,0-27.53-61.11l-29.8,29.61A225.14,225.14,0,0,1,2536.26,966Z" transform="translate(-2055.83 -774.53)"/><path class="cls-1" d="M2434.24,1238.58l9.91,40.85a267.5,267.5,0,0,0,55.36-37.75l-34.33-24.2A226.79,226.79,0,0,1,2434.24,1238.58Z" transform="translate(-2055.83 -774.53)"/><path class="cls-1" d="M2096.49,1041.53c0-.68,0-1.36,0-2l-40.33-11.84q-0.35,6.89-.36,13.88a268.22,268.22,0,0,0,5.26,53l38.15-17.64A228,228,0,0,1,2096.49,1041.53Z" transform="translate(-2055.83 -774.53)"/><path class="cls-1" d="M2148.14,1185.45l-38.48,16.84a268.55,268.55,0,0,0,46.73,48l17.87-38A227.74,227.74,0,0,1,2148.14,1185.45Z" transform="translate(-2055.83 -774.53)"/><path class="cls-1" d="M2364.16,819l18.67-37.67a267.83,267.83,0,0,0-60-6.77q-3.35,0-6.69.08l10.75,40.63A227.32,227.32,0,0,1,2364.16,819Z" transform="translate(-2055.83 -774.53)"/><path class="cls-1" d="M2549.17,1041.53c0,0.68,0,1.36,0,2l40.33,11.84q0.35-6.89.36-13.88a268.22,268.22,0,0,0-5.26-53l-38.15,17.64A228,228,0,0,1,2549.17,1041.53Z" transform="translate(-2055.83 -774.53)"/><path class="cls-1" d="M2207.89,1236.53l-30.4,29a265.87,265.87,0,0,0,60.33,29.18l3.8-41.86A225.35,225.35,0,0,1,2207.89,1236.53Z" transform="translate(-2055.83 -774.53)"/><path class="cls-1" d="M2318.77,1267.82a227.32,227.32,0,0,1-37.27-3.73l-18.67,37.67a267.83,267.83,0,0,0,60,6.77q3.35,0,6.69-.08Z" transform="translate(-2055.83 -774.53)"/><path class="cls-1" d="M2109.41,1117l-41.94,2.67A265.61,265.61,0,0,0,2095,1180.8l29.8-29.61A225.14,225.14,0,0,1,2109.41,1117Z" transform="translate(-2055.83 -774.53)"/><path class="cls-1" d="M2150.77,894.49l-23.27-35a267.76,267.76,0,0,0-39.22,54.33l40.56,11A227,227,0,0,1,2150.77,894.49Z" transform="translate(-2055.83 -774.53)"/><path class="cls-1" d="M2211.43,844.47l-9.91-40.85a267.51,267.51,0,0,0-55.36,37.75l34.33,24.2A226.79,226.79,0,0,1,2211.43,844.47Z" transform="translate(-2055.83 -774.53)"/><path class="cls-1" d="M2110.81,962.17L2077,937.26a265.1,265.1,0,0,0-18.18,64.51l41.86-3.53A224.64,224.64,0,0,1,2110.81,962.17Z" transform="translate(-2055.83 -774.53)"/><path class="cls-1" d="M2285.54,818.26l4.65-41.75a265.26,265.26,0,0,0-65,16.42l24,34.5A224.77,224.77,0,0,1,2285.54,818.26Z" transform="translate(-2055.83 -774.53)"/><path d="M2586.88,1081.29c1.27-8.5,2.15-17.14,2.59-25.89l-40.33-11.83c0-.68,0-1.36,0-2a227.07,227.07,0,0,0-2.75-35.31l38.15-17.65q-2.58-12.83-6.38-25.2L2536.26,966a225.47,225.47,0,0,0-15.4-34.16l29.8-29.61q-6.81-11.12-14.65-21.5l-38.48,16.85a227.59,227.59,0,0,0-26.13-26.83l17.87-38q-10.16-8.11-21.09-15.23l-30.4,29a225.63,225.63,0,0,0-33.73-16.32l3.79-41.85q-12.25-4.12-25-7.06L2364.15,819a226.31,226.31,0,0,0-37.26-3.73l-10.75-40.63q-13.14.33-26,1.91l-4.65,41.74a225.49,225.49,0,0,0-36.33,9.18l-24-34.5q-12.15,4.77-23.7,10.68l9.92,40.85a226.94,226.94,0,0,0-30.95,21.1l-34.33-24.2q-9.77,8.63-18.65,18.15l23.27,35a226.6,226.6,0,0,0-21.92,30.37l-40.57-11q-6.19,11.39-11.32,23.41l33.85,24.91a224.7,224.7,0,0,0-10.17,36.07l-41.86,3.53c-1.27,8.5-2.15,17.14-2.59,25.88l40.33,11.84c0,0.68,0,1.36,0,2a227.07,227.07,0,0,0,2.75,35.31l-38.15,17.64q2.58,12.84,6.38,25.21l41.93-2.67a225.13,225.13,0,0,0,15.4,34.17L2095,1180.8q6.81,11.11,14.65,21.49l38.48-16.84a227.59,227.59,0,0,0,26.13,26.83l-17.87,38q10.16,8.11,21.09,15.23l30.4-29a225.63,225.63,0,0,0,33.73,16.32l-3.79,41.85q12.25,4.13,25,7.06l18.67-37.67a227.42,227.42,0,0,0,37.26,3.73l10.75,40.62c8.76-.21,17.41-0.86,26-1.9l4.65-41.75a225.48,225.48,0,0,0,36.33-9.17l24,34.5q12.15-4.79,23.7-10.68l-9.92-40.86a226,226,0,0,0,30.95-21.09l34.33,24.2q9.77-8.62,18.65-18.16l-23.27-35a226.61,226.61,0,0,0,21.92-30.37l40.57,11q6.19-11.38,11.32-23.41l-33.85-24.91a225,225,0,0,0,10.17-36.07Zm-264.53,143.23a183,183,0,1,1,183-183A183,183,0,0,1,2322.35,1224.52Z" transform="translate(-2055.83 -774.53)"/></svg>