<svg id="Layer_1" data-name="Layer 1" xmlns="http://www.w3.org/2000/svg" viewBox="0 0 311.98 313.48"><title>cog-3</title><path d="M273.34,156.07a117.67,117.67,0,0,0-.94-14.87l31.32-19.51a150.57,150.57,0,0,0-7.92-24.43L259,99.89a117.07,117.07,0,0,0-17.5-24l13.86-34.18a151.56,151.56,0,0,0-20.77-15.11L206.37,50.28a115.72,115.72,0,0,0-28.31-9.19L169.19,5.31c-4.23-.36-8.52-0.54-12.84-0.54s-8.61.18-12.85,0.54l-8.87,35.78a115.72,115.72,0,0,0-28.31,9.19L78.11,26.55A151.56,151.56,0,0,0,57.34,41.66L71.2,75.84a116.7,116.7,0,0,0-17.5,24L16.89,97.26A150.8,150.8,0,0,0,9,121.68L40.29,141.2a118.08,118.08,0,0,0,0,29.74L9,190.46a150.8,150.8,0,0,0,7.93,24.42l36.82-2.63a116.33,116.33,0,0,0,17.5,24L57.34,270.48a151.56,151.56,0,0,0,20.77,15.11l28.22-23.74a115.78,115.78,0,0,0,28.3,9.19l8.87,35.79q6.36,0.54,12.85.54c4.32,0,8.61-.18,12.84-0.54L178.06,271a115.65,115.65,0,0,0,28.3-9.19l28.22,23.74a151.56,151.56,0,0,0,20.77-15.11l-13.87-34.19a116.63,116.63,0,0,0,17.5-24l36.82,2.63a150.57,150.57,0,0,0,7.92-24.43L272.4,170.94A117.67,117.67,0,0,0,273.34,156.07Zm-117,60a60,60,0,1,1,60-60A60,60,0,0,1,156.34,216.07Z"/></svg>