<svg id="Layer_1" data-name="Layer 1" xmlns="http://www.w3.org/2000/svg" viewBox="0 0 425.98 425.98"><title>cog</title><path d="M393.79,223.77L424,214a210.88,210.88,0,0,0-3.61-36.59l-30.88-2.22a179.13,179.13,0,0,0-13-37.29l21.75-22.25A210.56,210.56,0,0,0,378.29,85.7l-28,12.2a181.19,181.19,0,0,0-30.44-28l8.77-29.3a208.33,208.33,0,0,0-31.16-16.79L278.59,47.35a178.59,178.59,0,0,0-41.21-10.43l-5.79-29.7q-8.7-.72-17.6-0.73t-17.6.73l-5.79,29.7a178.59,178.59,0,0,0-41.21,10.43L130.47,23.76A208.33,208.33,0,0,0,99.31,40.55l8.76,29.31a180.74,180.74,0,0,0-30.43,28l-28-12.2a209.61,209.61,0,0,0-19.94,29.93L51.5,137.89a179.13,179.13,0,0,0-13,37.29L7.63,177.4A210.88,210.88,0,0,0,4,214l30.17,9.78a180.08,180.08,0,0,0,5.51,36.75L12.9,277.14a208,208,0,0,0,14,34.86l31.81-5.45a180.58,180.58,0,0,0,20.59,28.29L63.06,362.47a210.1,210.1,0,0,0,29,25l25.89-19.81a178.44,178.44,0,0,0,29.84,15.18l-1.59,32.46a208.48,208.48,0,0,0,37.58,9l13.75-29.65q8.13,0.73,16.46.74t16.46-.74l13.75,29.65a208.48,208.48,0,0,0,37.58-9l-1.59-32.46A178.44,178.44,0,0,0,310,367.65l25.89,19.81a210.1,210.1,0,0,0,29-25l-16.28-27.63a180.58,180.58,0,0,0,20.59-28.29L401,312a208,208,0,0,0,14-34.86l-26.8-16.62A180.08,180.08,0,0,0,393.79,223.77ZM214.24,353.39a138,138,0,1,1,138-138A138,138,0,0,1,214.24,353.39Z"/></svg>