<svg id="Layer_6" data-name="Layer 6" xmlns="http://www.w3.org/2000/svg" viewBox="0 0 44.66 44.67"><title>github</title><path d="M2791.67,4443.81a19.53,19.53,0,1,0,19.53,19.52A19.55,19.55,0,0,0,2791.67,4443.81Zm9.67,17.46a6.07,6.07,0,0,1-1,2.07,5.6,5.6,0,0,1-1.6,1.31,8.38,8.38,0,0,1-1.85.77,13.63,13.63,0,0,1-1.95.35,3.56,3.56,0,0,1,1.1,2.8v7.31a6,6,0,0,1-3.33,1.12h-1.19a6.79,6.79,0,0,1-3.48-1.08v-4.25c0-.67.16-1.26,0.16-1.76l-0.37.08a5.33,5.33,0,0,1-1.06.07,8.14,8.14,0,0,1-1.35-.14,3,3,0,0,1-1.31-.59,2.53,2.53,0,0,1-.86-1.21l-0.19-.46a5.06,5.06,0,0,0-.62-1,2.41,2.41,0,0,0-.86-0.75l-0.14-.1a1.16,1.16,0,0,1-.26-0.24,1.34,1.34,0,0,1-.17-0.27,0.17,0.17,0,0,1,.1-0.23,1.23,1.23,0,0,1,.57-0.09L2782,4465a2.79,2.79,0,0,1,1,.48,3.1,3.1,0,0,1,.95,1,3.5,3.5,0,0,0,1.1,1.23,2.34,2.34,0,0,0,1.29.43,6,6,0,0,0,1.12-.1,4.23,4.23,0,0,0,.89-0.3,3.18,3.18,0,0,1,1-2,15,15,0,0,1-2-.35,8.58,8.58,0,0,1-1.85-.77,5.58,5.58,0,0,1-1.59-1.32,6.46,6.46,0,0,1-1-2.07,9.86,9.86,0,0,1-.4-3,5.77,5.77,0,0,1,1.55-4.06,5.32,5.32,0,0,1,.14-4,2.79,2.79,0,0,1,1.7.26,12.26,12.26,0,0,1,1.64.76c0.35,0.21.63,0.39,0.84,0.53a14.3,14.3,0,0,1,7.57,0l0.75-.47a10.67,10.67,0,0,1,1.82-.87,2.55,2.55,0,0,1,1.59-.21,5.23,5.23,0,0,1,.16,4,5.73,5.73,0,0,1,1.56,4.06A10,10,0,0,1,2801.34,4461.27Z" transform="translate(-2769.34 -4441)"/><path d="M2791.67,4441a22.34,22.34,0,1,0,22.33,22.33A22.33,22.33,0,0,0,2791.67,4441Zm0,42.83a20.5,20.5,0,1,1,20.5-20.5A20.52,20.52,0,0,1,2791.67,4483.83Z" transform="translate(-2769.34 -4441)"/></svg>