<svg id="Layer_6" data-name="Layer 6" xmlns="http://www.w3.org/2000/svg" viewBox="0 0 44.66 44.67"><title>linkin</title><path d="M2970.66,4445.14a19.53,19.53,0,1,0,19.53,19.52A19.54,19.54,0,0,0,2970.66,4445.14ZM2965,4474h-4v-12h4v12Zm-0.87-14h0a2.56,2.56,0,0,1-2.34-2.62,2.39,2.39,0,0,1,2.4-2.44A2.54,2.54,0,0,1,2964.13,4460Zm15.87,14h-4v-7.16c0-1.71.14-2.89-1.4-2.89a2.53,2.53,0,0,0-2.34,1.56,2.64,2.64,0,0,0-.27,1V4474h-3.39s0-11,0-12H2972v0.71c0-.87,1.21-2.11,3.47-2.11,2.79,0,4.53,1.83,4.53,5.75V4474Z" transform="translate(-2948.34 -4442.33)"/><path d="M2970.66,4442.33a22.34,22.34,0,1,0,22.34,22.33A22.32,22.32,0,0,0,2970.66,4442.33Zm0,42.83a20.5,20.5,0,1,1,20.51-20.5A20.52,20.52,0,0,1,2970.66,4485.16Z" transform="translate(-2948.34 -4442.33)"/></svg>